<svg width="12" height="14" viewBox="0 0 12 14" fill="none" xmlns="http://www.w3.org/2000/svg">
<path d="M10.6094 0C10.7491 0 10.8828 0.0277594 11.0104 0.0832783C11.2109 0.163472 11.3704 0.289932 11.4889 0.462657C11.6074 0.635382 11.6667 0.826614 11.6667 1.03635V12.9636C11.6667 13.1734 11.6074 13.3646 11.4889 13.5373C11.3704 13.7101 11.2109 13.8365 11.0104 13.9167C10.895 13.9661 10.7613 13.9907 10.6094 13.9907C10.3177 13.9907 10.0655 13.892 9.85286 13.6946L5.83333 9.77132L1.8138 13.6946C1.59505 13.8982 1.34288 14 1.05729 14C0.917535 14 0.783854 13.9722 0.65625 13.9167C0.455729 13.8365 0.296224 13.7101 0.177734 13.5373C0.0592448 13.3646 0 13.1734 0 12.9636V1.03635C0 0.826614 0.0592448 0.635382 0.177734 0.462657C0.296224 0.289932 0.455729 0.163472 0.65625 0.0832783C0.783854 0.0277594 0.917535 0 1.05729 0H10.6094Z" fill="#EEEEEE"/>
</svg>
